<svg width="16" height="16" viewBox="0 0 16 16" fill="none" xmlns="http://www.w3.org/2000/svg">
<path d="M12.6144 7.55195L9.36318 4.30075C9.11518 4.05275 8.71358 4.05275 8.46558 4.30075L8.18558 4.58075C7.93758 4.82875 7.93758 5.23035 8.18558 5.47835L10.2608 7.55355C10.3856 7.67835 10.4464 7.83995 10.4464 8.00155C10.4464 8.16315 10.384 8.32635 10.2608 8.44955L8.18558 10.5247C7.93758 10.7727 7.93758 11.1743 8.18558 11.4223L8.46558 11.7023C8.71358 11.9471 9.11518 11.9471 9.36318 11.6991L12.6144 8.44795C12.7392 8.32315 12.8 8.16155 12.8 7.99995C12.8 7.83835 12.7376 7.67515 12.6144 7.55195ZM7.81438 7.55195L4.56318 4.30075C4.31518 4.05275 3.91358 4.05275 3.66558 4.30075L3.38558 4.58075C3.13758 4.82875 3.13758 5.23035 3.38558 5.47835L5.46078 7.55355C5.58558 7.67835 5.64638 7.83995 5.64638 8.00155C5.64638 8.16315 5.58398 8.32635 5.46078 8.44955L3.38558 10.5247C3.13758 10.7727 3.13758 11.1743 3.38558 11.4223L3.66558 11.7023C3.91358 11.9471 4.31518 11.9471 4.56318 11.6991L7.81438 8.44795C7.93918 8.32315 7.99998 8.16155 7.99998 7.99995C7.99998 7.83835 7.93758 7.67515 7.81438 7.55195Z" fill="black"/>
</svg>
